<svg width="24" height="24" viewBox="0 0 24 24" fill="none" xmlns="http://www.w3.org/2000/svg">
<path d="M4.39691 4.55394L4.46991 4.46994C4.5969 4.34292 4.76526 4.2657 4.94436 4.2523C5.12347 4.2389 5.30144 4.29023 5.44591 4.39694L5.52991 4.46994L11.9999 10.9389L18.4699 4.46894C18.5391 4.39734 18.6219 4.34025 18.7134 4.30098C18.805 4.26172 18.9034 4.24108 19.003 4.24026C19.1026 4.23944 19.2013 4.25846 19.2935 4.29622C19.3856 4.33397 19.4693 4.3897 19.5397 4.46015C19.6101 4.53061 19.6657 4.61437 19.7034 4.70656C19.7411 4.79875 19.76 4.89752 19.7591 4.9971C19.7582 5.09669 19.7375 5.19509 19.6981 5.28658C19.6588 5.37806 19.6016 5.46079 19.5299 5.52994L13.0609 11.9999L19.5309 18.4699C19.6578 18.5971 19.7348 18.7655 19.748 18.9446C19.7613 19.1237 19.7098 19.3016 19.6029 19.4459L19.5299 19.5299C19.4029 19.657 19.2346 19.7342 19.0555 19.7476C18.8764 19.761 18.6984 19.7097 18.5539 19.6029L18.4699 19.5299L11.9999 13.0609L5.52991 19.5309C5.3884 19.6675 5.19891 19.743 5.00226 19.7412C4.80561 19.7394 4.61754 19.6604 4.47855 19.5213C4.33956 19.3822 4.26077 19.194 4.25916 18.9974C4.25754 18.8007 4.33323 18.6113 4.46991 18.4699L10.9389 11.9999L4.46891 5.52994C4.34205 5.40283 4.265 5.23441 4.25179 5.0553C4.23858 4.8762 4.29007 4.6983 4.39691 4.55394Z" fill="#70685F"/>
</svg>
