<svg width="24" height="24" viewBox="0 0 24 24" fill="none" xmlns="http://www.w3.org/2000/svg">
<path d="M11.75 3C11.9312 3.00001 12.1063 3.06564 12.2429 3.18477C12.3795 3.30389 12.4683 3.46845 12.493 3.648L12.5 3.75L12.501 11H19.754C19.944 11.0001 20.1269 11.0722 20.2658 11.202C20.4046 11.3317 20.489 11.5093 20.502 11.6989C20.5149 11.8885 20.4555 12.0759 20.3355 12.2233C20.2156 12.3707 20.0442 12.4671 19.856 12.493L19.754 12.5H12.501L12.503 19.75C12.5027 19.9399 12.4303 20.1227 12.3005 20.2613C12.1707 20.4 11.9931 20.4842 11.8036 20.4971C11.6141 20.5099 11.4268 20.4503 11.2795 20.3304C11.1322 20.2105 11.0359 20.0392 11.01 19.851L11.003 19.749L11.001 12.5H3.75197C3.56195 12.4999 3.37903 12.4278 3.24018 12.298C3.10133 12.1683 3.01689 11.9907 3.00394 11.8011C2.99099 11.6115 3.05048 11.4241 3.1704 11.2767C3.29032 11.1293 3.46172 11.0329 3.64997 11.007L3.75197 11H11.002L11 3.75C11 3.55109 11.079 3.36032 11.2196 3.21967C11.3603 3.07902 11.5511 3 11.75 3Z" fill="#70685F"/>
</svg>
