<svg width="64" height="64" viewBox="0 0 64 64" fill="none" xmlns="http://www.w3.org/2000/svg">
<rect x="4" y="4" width="56" height="56" rx="28" fill="#FFEDEB"/>
<rect x="4" y="4" width="56" height="56" rx="28" stroke="#FFFAFA" stroke-width="8"/>
<path d="M40 39V36H27C25.3431 36 24 37.3431 24 39M28.8 42H36.8C37.9201 42 38.4802 42 38.908 41.782C39.2843 41.5903 39.5903 41.2843 39.782 40.908C40 40.4802 40 39.9201 40 38.8V25.2C40 24.0799 40 23.5198 39.782 23.092C39.5903 22.7157 39.2843 22.4097 38.908 22.218C38.4802 22 37.9201 22 36.8 22H28.8C27.1198 22 26.2798 22 25.638 22.327C25.0735 22.6146 24.6146 23.0735 24.327 23.638C24 24.2798 24 25.1198 24 26.8V37.2C24 38.8802 24 39.7202 24.327 40.362C24.6146 40.9265 25.0735 41.3854 25.638 41.673C26.2798 42 27.1198 42 28.8 42Z" stroke="#8B302F" stroke-width="2" stroke-linecap="round" stroke-linejoin="round"/>
</svg>
