<svg width="64" height="64" viewBox="0 0 64 64" fill="none" xmlns="http://www.w3.org/2000/svg">
<rect x="4" y="4" width="56" height="56" rx="28" fill="#FFEDEB"/>
<rect x="4" y="4" width="56" height="56" rx="28" stroke="#FFFAFA" stroke-width="8"/>
<path d="M30 35L26.9247 38.1137C26.4958 38.548 26.2813 38.7652 26.097 38.7805C25.937 38.7938 25.7804 38.7295 25.676 38.6076C25.5556 38.4672 25.5556 38.162 25.5556 37.5515V35.9916C25.5556 35.444 25.1071 35.0477 24.5652 34.9683V34.9683C23.2537 34.7762 22.2238 33.7463 22.0317 32.4348C22 32.2186 22 31.9605 22 31.4444V26.8C22 25.1198 22 24.2798 22.327 23.638C22.6146 23.0735 23.0735 22.6146 23.638 22.327C24.2798 22 25.1198 22 26.8 22H34.2C35.8802 22 36.7202 22 37.362 22.327C37.9265 22.6146 38.3854 23.0735 38.673 23.638C39 24.2798 39 25.1198 39 26.8V31M39 42L36.8236 40.4869C36.5177 40.2742 36.3647 40.1678 36.1982 40.0924C36.0504 40.0255 35.8951 39.9768 35.7356 39.9474C35.5558 39.9143 35.3695 39.9143 34.9969 39.9143H33.2C32.0799 39.9143 31.5198 39.9143 31.092 39.6963C30.7157 39.5046 30.4097 39.1986 30.218 38.8223C30 38.3944 30 37.8344 30 36.7143V34.2C30 33.0799 30 32.5198 30.218 32.092C30.4097 31.7157 30.7157 31.4097 31.092 31.218C31.5198 31 32.0799 31 33.2 31H38.8C39.9201 31 40.4802 31 40.908 31.218C41.2843 31.4097 41.5903 31.7157 41.782 32.092C42 32.5198 42 33.0799 42 34.2V36.9143C42 37.8462 42 38.3121 41.8478 38.6797C41.6448 39.1697 41.2554 39.5591 40.7654 39.762C40.3978 39.9143 39.9319 39.9143 39 39.9143V42Z" stroke="#8B302F" stroke-width="2" stroke-linecap="round" stroke-linejoin="round"/>
</svg>
