<svg width="64" height="64" viewBox="0 0 64 64" fill="none" xmlns="http://www.w3.org/2000/svg">
<rect x="4" y="4" width="56" height="56" rx="28" fill="#FFEDEB"/>
<rect x="4" y="4" width="56" height="56" rx="28" stroke="#FFFAFA" stroke-width="8"/>
<path d="M37 34.5001V31.4945C37 31.315 37 31.2253 36.9727 31.146C36.9485 31.076 36.9091 31.0122 36.8572 30.9592C36.7986 30.8993 36.7183 30.8592 36.5578 30.779L32 28.5001M24 29.5001V36.3067C24 36.6786 24 36.8645 24.058 37.0274C24.1093 37.1713 24.1929 37.3016 24.3024 37.4082C24.4262 37.5287 24.5953 37.6062 24.9334 37.7612L31.3334 40.6945C31.5786 40.8069 31.7012 40.8631 31.8289 40.8853C31.9421 40.9049 32.0579 40.9049 32.1711 40.8853C32.2988 40.8631 32.4214 40.8069 32.6666 40.6945L39.0666 37.7612C39.4047 37.6062 39.5738 37.5287 39.6976 37.4082C39.8071 37.3016 39.8907 37.1713 39.942 37.0274C40 36.8645 40 36.6786 40 36.3067V29.5001M22 28.5001L31.6422 23.679C31.7734 23.6134 31.839 23.5806 31.9078 23.5677C31.9687 23.5562 32.0313 23.5562 32.0922 23.5677C32.161 23.5806 32.2266 23.6134 32.3578 23.679L42 28.5001L32.3578 33.3212C32.2266 33.3868 32.161 33.4196 32.0922 33.4325C32.0313 33.4439 31.9687 33.4439 31.9078 33.4325C31.839 33.4196 31.7734 33.3868 31.6422 33.3212L22 28.5001Z" stroke="#8B302F" stroke-width="2" stroke-linecap="round" stroke-linejoin="round"/>
</svg>
