<svg width="64" height="64" viewBox="0 0 64 64" fill="none" xmlns="http://www.w3.org/2000/svg">
<rect x="4" y="4" width="56" height="56" rx="28" fill="#FFEDEB"/>
<rect x="4" y="4" width="56" height="56" rx="28" stroke="#FFFAFA" stroke-width="8"/>
<path d="M35 21.125C33.7766 21.1257 32.5701 21.4113 31.4762 21.9591C30.3822 22.507 29.4309 23.302 28.6975 24.2813C27.9641 25.2605 27.4689 26.3971 27.2509 27.601C27.033 28.8049 27.0984 30.043 27.4419 31.2172L22.2041 36.4541C22.0996 36.5586 22.0168 36.6827 21.9603 36.8193C21.9039 36.9559 21.8749 37.1022 21.875 37.25V41C21.875 41.2984 21.9935 41.5845 22.2045 41.7955C22.4155 42.0065 22.7016 42.125 23 42.125H26.75C27.0484 42.125 27.3345 42.0065 27.5455 41.7955C27.7565 41.5845 27.875 41.2984 27.875 41V39.875H29C29.2984 39.875 29.5845 39.7565 29.7955 39.5455C30.0065 39.3345 30.125 39.0484 30.125 38.75V37.625H31.25C31.3978 37.6251 31.5441 37.5961 31.6807 37.5397C31.8173 37.4832 31.9414 37.4004 32.0459 37.2959L32.7828 36.5581C33.8657 36.875 35.0041 36.9554 36.1208 36.794C37.2375 36.6326 38.3064 36.2331 39.2553 35.6226C40.2042 35.0121 41.0108 34.2048 41.6205 33.2554C42.2302 32.306 42.6287 31.2367 42.7892 30.1199C42.9496 29.003 42.8682 27.8647 42.5504 26.7821C42.2327 25.6995 41.686 24.6978 40.9474 23.8448C40.2087 22.9919 39.2955 22.3076 38.2694 21.8384C37.2433 21.3691 36.1283 21.1258 35 21.125ZM35 34.625C34.2906 34.6265 33.5875 34.4929 32.9281 34.2313C32.7213 34.1426 32.4927 34.118 32.2718 34.1606C32.0508 34.2032 31.8477 34.3111 31.6887 34.4703L30.7812 35.375H29C28.7016 35.375 28.4155 35.4935 28.2045 35.7045C27.9935 35.9155 27.875 36.2016 27.875 36.5V37.625H26.75C26.4516 37.625 26.1655 37.7435 25.9545 37.9545C25.7435 38.1655 25.625 38.4516 25.625 38.75V39.875H24.125V37.7188L29.5297 32.3141C29.6887 32.1552 29.7965 31.9522 29.8391 31.7315C29.8817 31.5108 29.8572 31.2823 29.7687 31.0756C29.3248 29.9575 29.2511 28.7264 29.5584 27.5632C29.8657 26.4001 30.5378 25.3661 31.4761 24.6131C32.4144 23.8601 33.5693 23.4277 34.7714 23.3795C35.9736 23.3313 37.1594 23.6698 38.155 24.3453C39.1505 25.0208 39.9033 25.9976 40.3027 27.1325C40.7022 28.2673 40.7272 29.5003 40.3742 30.6504C40.0212 31.8005 39.3088 32.8072 38.3415 33.5226C37.3742 34.2379 36.2031 34.6243 35 34.625ZM38.375 27.125C38.375 27.4217 38.287 27.7117 38.1222 27.9584C37.9574 28.205 37.7231 28.3973 37.449 28.5108C37.1749 28.6244 36.8733 28.6541 36.5824 28.5962C36.2914 28.5383 36.0241 28.3954 35.8143 28.1857C35.6046 27.9759 35.4617 27.7086 35.4038 27.4176C35.3459 27.1267 35.3756 26.8251 35.4892 26.551C35.6027 26.2769 35.795 26.0426 36.0416 25.8778C36.2883 25.713 36.5783 25.625 36.875 25.625C37.2728 25.625 37.6544 25.783 37.9357 26.0643C38.217 26.3456 38.375 26.7272 38.375 27.125Z" fill="#8B302F"/>
</svg>
