<svg width="64" height="64" viewBox="0 0 64 64" fill="none" xmlns="http://www.w3.org/2000/svg">
<rect x="4" y="4" width="56" height="56" rx="28" fill="#FFEDEB"/>
<rect x="4" y="4" width="56" height="56" rx="28" stroke="#FFFAFA" stroke-width="8"/>
<path d="M29.213 34.5001C29.5252 35.0946 30.1486 35.5001 30.8667 35.5001H33C34.1046 35.5001 35 34.6047 35 33.5001C35 32.3955 34.1046 31.5001 33 31.5001H31C29.8954 31.5001 29 30.6047 29 29.5001C29 28.3955 29.8954 27.5001 31 27.5001H33.1333C33.8514 27.5001 34.4748 27.9056 34.787 28.5001M32 26.0001V27.5001M32 35.5001V37.0001M40 32.0001C40 36.9086 34.646 40.4785 32.698 41.615C32.4766 41.7442 32.3659 41.8087 32.2097 41.8422C32.0884 41.8682 31.9116 41.8682 31.7903 41.8422C31.6341 41.8087 31.5234 41.7442 31.302 41.615C29.354 40.4785 24 36.9086 24 32.0001V27.2177C24 26.4182 24 26.0184 24.1308 25.6748C24.2463 25.3713 24.434 25.1004 24.6777 24.8856C24.9535 24.6426 25.3278 24.5022 26.0764 24.2215L31.4382 22.2108C31.6461 22.1328 31.75 22.0938 31.857 22.0784C31.9518 22.0647 32.0482 22.0647 32.143 22.0784C32.25 22.0938 32.3539 22.1328 32.5618 22.2108L37.9236 24.2215C38.6722 24.5022 39.0465 24.6426 39.3223 24.8856C39.566 25.1004 39.7537 25.3713 39.8692 25.6748C40 26.0184 40 26.4182 40 27.2177V32.0001Z" stroke="#8B302F" stroke-width="2" stroke-linecap="round" stroke-linejoin="round"/>
</svg>
