<svg width="64" height="64" viewBox="0 0 64 64" fill="none" xmlns="http://www.w3.org/2000/svg">
<rect x="4" y="4" width="56" height="56" rx="28" fill="#FFEDEB"/>
<rect x="4" y="4" width="56" height="56" rx="28" stroke="#FFFAFA" stroke-width="8"/>
<path d="M27.8687 35.4599L27 42L31.5884 39.247C31.7381 39.1572 31.8129 39.1123 31.8928 39.0947C31.9634 39.0792 32.0366 39.0792 32.1072 39.0947C32.1871 39.1123 32.2619 39.1572 32.4116 39.247L37 42L36.1319 35.4571M36.4259 24.2489C36.5803 24.6224 36.8768 24.9193 37.25 25.0743L38.5589 25.6165C38.9325 25.7712 39.2292 26.068 39.384 26.4415C39.5387 26.8151 39.5387 27.2348 39.384 27.6084L38.8422 28.9164C38.6874 29.2901 38.6872 29.7102 38.8427 30.0837L39.3835 31.3913C39.4602 31.5764 39.4997 31.7747 39.4997 31.975C39.4998 32.1752 39.4603 32.3736 39.3837 32.5586C39.3071 32.7436 39.1947 32.9118 39.0531 33.0534C38.9114 33.195 38.7433 33.3073 38.5582 33.3839L37.2503 33.9256C36.8768 34.0801 36.5799 34.3765 36.4249 34.7498L35.8827 36.0588C35.728 36.4323 35.4312 36.7291 35.0577 36.8838C34.6841 37.0386 34.2644 37.0386 33.8909 36.8838L32.583 36.342C32.2094 36.1877 31.7899 36.188 31.4166 36.3429L30.1077 36.8843C29.7343 37.0387 29.315 37.0386 28.9418 36.884C28.5685 36.7293 28.2719 36.4329 28.1171 36.0598L27.5748 34.7504C27.4204 34.3769 27.1239 34.08 26.7506 33.925L25.4417 33.3828C25.0684 33.2282 24.7717 32.9316 24.6169 32.5582C24.4621 32.1849 24.4619 31.7654 24.6163 31.3919L25.1581 30.0839C25.3124 29.7104 25.3121 29.2908 25.1572 28.9175L24.6162 27.6076C24.5395 27.4226 24.5 27.2243 24.5 27.024C24.5 26.8237 24.5394 26.6254 24.616 26.4403C24.6927 26.2553 24.805 26.0872 24.9467 25.9456C25.0883 25.804 25.2565 25.6917 25.4415 25.6151L26.7495 25.0733C27.1227 24.919 27.4194 24.6229 27.5745 24.25L28.1166 22.9411C28.2714 22.5676 28.5681 22.2708 28.9417 22.116C29.3152 21.9613 29.7349 21.9613 30.1084 22.116L31.4164 22.6578C31.7899 22.8122 32.2095 22.8119 32.5828 22.657L33.8922 22.1169C34.2657 21.9622 34.6853 21.9623 35.0588 22.117C35.4322 22.2717 35.729 22.5684 35.8837 22.9418L36.426 24.2511L36.4259 24.2489Z" stroke="#8B302F" stroke-width="2" stroke-linecap="round" stroke-linejoin="round"/>
</svg>
